<svg width="25" height="24" viewBox="0 0 25 24" fill="none" xmlns="http://www.w3.org/2000/svg">
<path fill-rule="evenodd" clip-rule="evenodd" d="M22.0599 0.561458C22.6787 0.928655 23.1873 1.45559 23.5323 2.087C23.8802 2.7086 24.0518 3.41341 24.0285 4.12537C24.0053 4.83733 23.7881 5.52943 23.4003 6.127C22.2282 7.82675 20.6834 9.2363 18.8836 10.2481C17.0838 11.2598 15.0766 11.8471 13.0153 11.965V22H17.0153C17.2805 22 17.5349 22.1054 17.7224 22.2929C17.91 22.4804 18.0153 22.7348 18.0153 23C18.0153 23.2652 17.91 23.5196 17.7224 23.7071C17.5349 23.8946 17.2805 24 17.0153 24H7.01531C6.7501 24 6.49574 23.8946 6.30821 23.7071C6.12067 23.5196 6.01531 23.2652 6.01531 23C6.01531 22.7348 6.12067 22.4804 6.30821 22.2929C6.49574 22.1054 6.7501 22 7.01531 22H11.0153V11.965C8.954 11.8471 6.94686 11.2598 5.14706 10.2481C3.34727 9.2363 1.80239 7.82675 0.630311 6.127C0.242569 5.52943 0.0253491 4.83733 0.00208692 4.12537C-0.0211752 3.41341 0.150403 2.7086 0.498311 2.087C0.84337 1.45559 1.35197 0.928655 1.97077 0.561458C2.58957 0.19426 3.29577 0.000328576 4.01531 0H20.0153C20.7349 0.000328576 21.4411 0.19426 22.0599 0.561458ZM21.4295 2.58579C21.0545 2.21071 20.5457 2 20.0153 2H4.01531C3.48488 2 2.97617 2.21071 2.6011 2.58579C2.22603 2.96086 2.01531 3.46957 2.01531 4L5.92864 4.92123C6.6936 5.10131 7.49024 5.09853 8.25393 4.91314L10.8471 4.2836C11.615 4.09719 12.4161 4.09542 13.1848 4.27843L15.8724 4.91833C16.6368 5.10032 17.4332 5.0996 18.1973 4.91625L22.0153 4C22.0153 3.46957 21.8046 2.96086 21.4295 2.58579ZM7.09225 8.96308C8.64162 9.65253 10.3195 10.0059 12.0153 10C13.7112 10.0063 15.3892 9.65308 16.9386 8.96361C18.488 8.27413 19.8737 7.26406 21.0043 6L17.7957 6.85961C16.946 7.08726 16.0513 7.0867 15.2018 6.85799L13.3102 6.34866C12.4619 6.12026 11.5685 6.11938 10.7197 6.34612L8.79422 6.86052C7.94432 7.08758 7.04956 7.08638 6.20027 6.85705L3.02631 6C4.15715 7.26376 5.54288 8.27363 7.09225 8.96308Z" fill="#FFA200"/>
<path d="M12.0153 10C10.3195 10.0059 8.64162 9.65253 7.09225 8.96308C5.54288 8.27363 4.15715 7.26376 3.02631 6L6.20027 6.85705C7.04956 7.08638 7.94432 7.08758 8.79422 6.86052L10.7197 6.34612C11.5685 6.11938 12.4619 6.12026 13.3102 6.34866L15.2018 6.85799C16.0513 7.0867 16.946 7.08726 17.7957 6.85961L21.0043 6C19.8737 7.26406 18.488 8.27413 16.9386 8.96361C15.3892 9.65308 13.7112 10.0063 12.0153 10Z" fill="#FFA200"/>
</svg>
