<svg width="31" height="45" viewBox="0 0 31 45" fill="none" xmlns="http://www.w3.org/2000/svg">
<path d="M15.3685 2C8.05389 2 2.12976 7.92413 2.12976 15.2388C2.12976 20.9037 10.0704 35.0317 13.6521 41.1162C14.195 42.0386 14.4665 42.4997 14.8472 42.6677C15.1722 42.8111 15.5648 42.8111 15.8899 42.6677C16.2706 42.4997 16.542 42.0386 17.0849 41.1162C20.6667 35.0317 28.6073 20.9037 28.6073 15.2388C28.6073 7.92413 22.6832 2 15.3685 2ZM15.3685 22.354C11.4384 22.354 8.25328 19.1689 8.25328 15.2388C8.25328 11.3086 11.4384 8.12352 15.3685 8.12352C19.2987 8.12352 22.4838 11.3086 22.4838 15.2388C22.4838 19.1689 19.2987 22.354 15.3685 22.354Z" fill="#FF93FF"/>
<path d="M15.3685 22.354C11.4384 22.354 8.25328 19.1689 8.25328 15.2388C8.25328 11.3086 11.4384 8.12352 15.3685 8.12352C19.2987 8.12352 22.4838 11.3086 22.4838 15.2388C22.4838 19.1689 19.2987 22.354 15.3685 22.354Z" fill="#FF93FF"/>
<path fill-rule="evenodd" clip-rule="evenodd" d="M0.129761 15.2388C0.129761 6.81956 6.94932 0 15.3685 0C23.7877 0 30.6073 6.81956 30.6073 15.2388C30.6073 17.0224 30.0053 19.2429 29.1917 21.4958C28.3579 23.8044 27.2202 26.3617 25.9877 28.8951C23.5211 33.9653 20.61 39.0705 18.8085 42.1308L18.7719 42.193C18.5327 42.5996 18.2852 43.0202 18.043 43.3527C17.7814 43.7116 17.3643 44.2031 16.6972 44.4975C15.8578 44.8678 14.8792 44.8678 14.0399 44.4975C13.3727 44.2031 12.9557 43.7116 12.6941 43.3527C12.4519 43.0202 12.2043 42.5995 11.9651 42.1929L11.9286 42.1308C10.1271 39.0705 7.21599 33.9653 4.74933 28.8951C3.51682 26.3617 2.37913 23.8044 1.54537 21.4958C0.731728 19.2429 0.129761 17.0224 0.129761 15.2388ZM2.12976 15.2388C2.12976 7.92413 8.05389 2 15.3685 2C22.6832 2 28.6073 7.92413 28.6073 15.2388C28.6073 20.9037 20.6667 35.0317 17.0849 41.1162C16.542 42.0386 16.2706 42.4997 15.8899 42.6677C15.5648 42.8111 15.1722 42.8111 14.8472 42.6677C14.4665 42.4997 14.195 42.0386 13.6521 41.1162C10.0704 35.0317 2.12976 20.9037 2.12976 15.2388Z" fill="#DE72DE"/>
<g filter="url(#filter0_i_1_644)">
<path d="M15.3684 22.3563C11.4382 22.3563 8.25317 19.1712 8.25317 15.241C8.25317 11.3109 11.4382 8.12579 15.3684 8.12579C19.2986 8.12579 22.4837 11.3109 22.4837 15.241C22.4837 19.1712 19.2986 22.3563 15.3684 22.3563Z" fill="#DE72DE"/>
<path d="M15.3684 22.3563C11.4382 22.3563 8.25317 19.1712 8.25317 15.241C8.25317 11.3109 11.4382 8.12579 15.3684 8.12579C19.2986 8.12579 22.4837 11.3109 22.4837 15.241C22.4837 19.1712 19.2986 22.3563 15.3684 22.3563Z" fill="#DE72DE"/>
</g>
<path d="M12.4869 19.561V10.921H15.9129C16.4969 10.921 16.9749 11.039 17.3469 11.275C17.7229 11.507 18.0009 11.805 18.1809 12.169C18.3649 12.533 18.4569 12.909 18.4569 13.297C18.4569 13.773 18.3429 14.177 18.1149 14.509C17.8909 14.841 17.5849 15.065 17.1969 15.181V14.881C17.7409 15.005 18.1529 15.263 18.4329 15.655C18.7169 16.047 18.8589 16.493 18.8589 16.993C18.8589 17.505 18.7609 17.953 18.5649 18.337C18.3689 18.721 18.0769 19.021 17.6889 19.237C17.3049 19.453 16.8289 19.561 16.2609 19.561H12.4869ZM13.9509 18.199H16.0809C16.3329 18.199 16.5589 18.149 16.7589 18.049C16.9589 17.945 17.1149 17.801 17.2269 17.617C17.3429 17.429 17.4009 17.207 17.4009 16.951C17.4009 16.719 17.3509 16.511 17.2509 16.327C17.1509 16.143 17.0049 15.997 16.8129 15.889C16.6209 15.777 16.3909 15.721 16.1229 15.721H13.9509V18.199ZM13.9509 14.371H15.8949C16.1029 14.371 16.2889 14.331 16.4529 14.251C16.6169 14.171 16.7469 14.053 16.8429 13.897C16.9389 13.741 16.9869 13.549 16.9869 13.321C16.9869 13.021 16.8909 12.771 16.6989 12.571C16.5069 12.371 16.2389 12.271 15.8949 12.271H13.9509V14.371Z" fill="white"/>
<defs>
<filter id="filter0_i_1_644" x="8.25317" y="8.12579" width="14.2305" height="15.678" filterUnits="userSpaceOnUse" color-interpolation-filters="sRGB">
<feFlood flood-opacity="0" result="BackgroundImageFix"/>
<feBlend mode="normal" in="SourceGraphic" in2="BackgroundImageFix" result="shape"/>
<feColorMatrix in="SourceAlpha" type="matrix" values="0 0 0 0 0 0 0 0 0 0 0 0 0 0 0 0 0 0 127 0" result="hardAlpha"/>
<feOffset dy="1.44751"/>
<feGaussianBlur stdDeviation="0.723756"/>
<feComposite in2="hardAlpha" operator="arithmetic" k2="-1" k3="1"/>
<feColorMatrix type="matrix" values="0 0 0 0 0.803922 0 0 0 0 0.380392 0 0 0 0 0.803922 0 0 0 1 0"/>
<feBlend mode="normal" in2="shape" result="effect1_innerShadow_1_644"/>
</filter>
</defs>
</svg>
