<svg width="31" height="45" viewBox="0 0 31 45" fill="none" xmlns="http://www.w3.org/2000/svg">
<path d="M15.4135 2C8.09881 2 2.17468 7.92413 2.17468 15.2388C2.17468 20.9037 10.1153 35.0317 13.697 41.1162C14.24 42.0386 14.5114 42.4997 14.8921 42.6677C15.2172 42.8111 15.6097 42.8111 15.9348 42.6677C16.3155 42.4997 16.5869 42.0386 17.1299 41.1162C20.7116 35.0317 28.6522 20.9037 28.6522 15.2388C28.6522 7.92413 22.7281 2 15.4135 2ZM15.4135 22.354C11.4833 22.354 8.2982 19.1689 8.2982 15.2388C8.2982 11.3086 11.4833 8.12352 15.4135 8.12352C19.3436 8.12352 22.5287 11.3086 22.5287 15.2388C22.5287 19.1689 19.3436 22.354 15.4135 22.354Z" fill="#639AFE"/>
<path d="M15.4135 22.354C11.4833 22.354 8.2982 19.1689 8.2982 15.2388C8.2982 11.3086 11.4833 8.12352 15.4135 8.12352C19.3436 8.12352 22.5287 11.3086 22.5287 15.2388C22.5287 19.1689 19.3436 22.354 15.4135 22.354Z" fill="#639AFE"/>
<path fill-rule="evenodd" clip-rule="evenodd" d="M0.174683 15.2388C0.174683 6.81956 6.99424 0 15.4135 0C23.8327 0 30.6522 6.81956 30.6522 15.2388C30.6522 17.0224 30.0503 19.2429 29.2366 21.4958C28.4028 23.8044 27.2652 26.3617 26.0326 28.8951C23.566 33.9653 20.6549 39.0705 18.8534 42.1308L18.8168 42.193C18.5776 42.5996 18.3301 43.0202 18.0879 43.3527C17.8263 43.7116 17.4093 44.2031 16.7421 44.4975C15.9028 44.8678 14.9242 44.8678 14.0848 44.4975C13.4176 44.2031 13.0006 43.7116 12.739 43.3527C12.4968 43.0202 12.2493 42.5995 12.01 42.1929L11.9735 42.1308C10.172 39.0705 7.26091 33.9653 4.79425 28.8951C3.56174 26.3617 2.42406 23.8044 1.59029 21.4958C0.77665 19.2429 0.174683 17.0224 0.174683 15.2388ZM2.17468 15.2388C2.17468 7.92413 8.09881 2 15.4135 2C22.7281 2 28.6522 7.92413 28.6522 15.2388C28.6522 20.9037 20.7116 35.0317 17.1299 41.1162C16.5869 42.0386 16.3155 42.4997 15.9348 42.6677C15.6097 42.8111 15.2172 42.8111 14.8921 42.6677C14.5114 42.4997 14.24 42.0386 13.697 41.1162C10.1153 35.0317 2.17468 20.9037 2.17468 15.2388Z" fill="#5087EB"/>
<g filter="url(#filter0_i_1_634)">
<path d="M15.4133 22.3563C11.4832 22.3563 8.2981 19.1712 8.2981 15.241C8.2981 11.3109 11.4832 8.12579 15.4133 8.12579C19.3435 8.12579 22.5286 11.3109 22.5286 15.241C22.5286 19.1712 19.3435 22.3563 15.4133 22.3563Z" fill="#5087EB"/>
<path d="M15.4133 22.3563C11.4832 22.3563 8.2981 19.1712 8.2981 15.241C8.2981 11.3109 11.4832 8.12579 15.4133 8.12579C19.3435 8.12579 22.5286 11.3109 22.5286 15.241C22.5286 19.1712 19.3435 22.3563 15.4133 22.3563Z" fill="#5087EB"/>
</g>
<path d="M12.2274 19.5611V10.9211H15.6534C16.2374 10.9211 16.7154 11.0391 17.0874 11.2751C17.4634 11.5071 17.7414 11.8051 17.9214 12.1691C18.1054 12.5331 18.1974 12.9091 18.1974 13.2971C18.1974 13.7731 18.0834 14.1771 17.8554 14.5091C17.6314 14.8411 17.3254 15.0651 16.9374 15.1811V14.8811C17.4814 15.0051 17.8934 15.2631 18.1734 15.6551C18.4574 16.0471 18.5994 16.4931 18.5994 16.9931C18.5994 17.5051 18.5014 17.9531 18.3054 18.3371C18.1094 18.7211 17.8174 19.0211 17.4294 19.2371C17.0454 19.4531 16.5694 19.5611 16.0014 19.5611H12.2274ZM13.6914 18.1991H15.8214C16.0734 18.1991 16.2994 18.1491 16.4994 18.0491C16.6994 17.9451 16.8554 17.8011 16.9674 17.6171C17.0834 17.4291 17.1414 17.2071 17.1414 16.9511C17.1414 16.7191 17.0914 16.5111 16.9914 16.3271C16.8914 16.1431 16.7454 15.9971 16.5534 15.8891C16.3614 15.7771 16.1314 15.7211 15.8634 15.7211H13.6914V18.1991ZM13.6914 14.3711H15.6354C15.8434 14.3711 16.0294 14.3311 16.1934 14.2511C16.3574 14.1711 16.4874 14.0531 16.5834 13.8971C16.6794 13.7411 16.7274 13.5491 16.7274 13.3211C16.7274 13.0211 16.6314 12.7711 16.4394 12.5711C16.2474 12.3711 15.9794 12.2711 15.6354 12.2711H13.6914V14.3711Z" fill="white"/>
<defs>
<filter id="filter0_i_1_634" x="8.2981" y="8.12579" width="14.2305" height="15.678" filterUnits="userSpaceOnUse" color-interpolation-filters="sRGB">
<feFlood flood-opacity="0" result="BackgroundImageFix"/>
<feBlend mode="normal" in="SourceGraphic" in2="BackgroundImageFix" result="shape"/>
<feColorMatrix in="SourceAlpha" type="matrix" values="0 0 0 0 0 0 0 0 0 0 0 0 0 0 0 0 0 0 127 0" result="hardAlpha"/>
<feOffset dy="1.44751"/>
<feGaussianBlur stdDeviation="0.723756"/>
<feComposite in2="hardAlpha" operator="arithmetic" k2="-1" k3="1"/>
<feColorMatrix type="matrix" values="0 0 0 0 0.235294 0 0 0 0 0.45098 0 0 0 0 0.843137 0 0 0 1 0"/>
<feBlend mode="normal" in2="shape" result="effect1_innerShadow_1_634"/>
</filter>
</defs>
</svg>
