<svg width="32" height="45" viewBox="0 0 32 45" fill="none" xmlns="http://www.w3.org/2000/svg">
<path d="M15.891 2C8.57635 2 2.65222 7.92413 2.65222 15.2388C2.65222 20.9037 10.5928 35.0317 14.1746 41.1162C14.7175 42.0386 14.989 42.4997 15.3696 42.6677C15.6947 42.8111 16.0873 42.8111 16.4124 42.6677C16.793 42.4997 17.0645 42.0386 17.6074 41.1162C21.1891 35.0317 29.1298 20.9037 29.1298 15.2388C29.1298 7.92413 23.2056 2 15.891 2ZM15.891 22.354C11.9608 22.354 8.77574 19.1689 8.77574 15.2388C8.77574 11.3086 11.9608 8.12352 15.891 8.12352C19.8212 8.12352 23.0062 11.3086 23.0062 15.2388C23.0062 19.1689 19.8212 22.354 15.891 22.354Z" fill="#86624E"/>
<path d="M15.891 22.354C11.9608 22.354 8.77574 19.1689 8.77574 15.2388C8.77574 11.3086 11.9608 8.12352 15.891 8.12352C19.8212 8.12352 23.0062 11.3086 23.0062 15.2388C23.0062 19.1689 19.8212 22.354 15.891 22.354Z" fill="#86624E"/>
<path fill-rule="evenodd" clip-rule="evenodd" d="M0.652222 15.2388C0.652222 6.81956 7.47178 0 15.891 0C24.3102 0 31.1298 6.81956 31.1298 15.2388C31.1298 17.0224 30.5278 19.2429 29.7142 21.4958C28.8804 23.8044 27.7427 26.3617 26.5102 28.8951C24.0435 33.9653 21.1325 39.0705 19.331 42.1308L19.2944 42.193C19.0552 42.5996 18.8077 43.0202 18.5654 43.3527C18.3039 43.7116 17.8868 44.2031 17.2197 44.4975C16.3803 44.8678 15.4017 44.8678 14.5623 44.4975C13.8952 44.2031 13.4781 43.7116 13.2166 43.3527C12.9743 43.0202 12.7268 42.5995 12.4876 42.1929L12.451 42.1308C10.6495 39.0705 7.73845 33.9653 5.27179 28.8951C4.03928 26.3617 2.9016 23.8044 2.06783 21.4958C1.25419 19.2429 0.652222 17.0224 0.652222 15.2388ZM2.65222 15.2388C2.65222 7.92413 8.57635 2 15.891 2C23.2056 2 29.1298 7.92413 29.1298 15.2388C29.1298 20.9037 21.1891 35.0317 17.6074 41.1162C17.0645 42.0386 16.793 42.4997 16.4124 42.6677C16.0873 42.8111 15.6947 42.8111 15.3696 42.6677C14.989 42.4997 14.7175 42.0386 14.1746 41.1162C10.5928 35.0317 2.65222 20.9037 2.65222 15.2388Z" fill="#76523E"/>
<g filter="url(#filter0_i_1_639)">
<path d="M15.8909 22.3563C11.9607 22.3563 8.77563 19.1712 8.77563 15.241C8.77563 11.3109 11.9607 8.12579 15.8909 8.12579C19.8211 8.12579 23.0061 11.3109 23.0061 15.241C23.0061 19.1712 19.8211 22.3563 15.8909 22.3563Z" fill="#76523E"/>
<path d="M15.8909 22.3563C11.9607 22.3563 8.77563 19.1712 8.77563 15.241C8.77563 11.3109 11.9607 8.12579 15.8909 8.12579C19.8211 8.12579 23.0061 11.3109 23.0061 15.241C23.0061 19.1712 19.8211 22.3563 15.8909 22.3563Z" fill="#76523E"/>
</g>
<path d="M12.705 19.5611V10.9211H16.131C16.715 10.9211 17.193 11.0391 17.565 11.2751C17.941 11.5071 18.219 11.8051 18.399 12.1691C18.583 12.5331 18.675 12.9091 18.675 13.2971C18.675 13.7731 18.561 14.1771 18.333 14.5091C18.109 14.8411 17.803 15.0651 17.415 15.1811V14.8811C17.959 15.0051 18.371 15.2631 18.651 15.6551C18.935 16.0471 19.077 16.4931 19.077 16.9931C19.077 17.5051 18.979 17.9531 18.783 18.3371C18.587 18.7211 18.295 19.0211 17.907 19.2371C17.523 19.4531 17.047 19.5611 16.479 19.5611H12.705ZM14.169 18.1991H16.299C16.551 18.1991 16.777 18.1491 16.977 18.0491C17.177 17.9451 17.333 17.8011 17.445 17.6171C17.561 17.4291 17.619 17.2071 17.619 16.9511C17.619 16.7191 17.569 16.5111 17.469 16.3271C17.369 16.1431 17.223 15.9971 17.031 15.8891C16.839 15.7771 16.609 15.7211 16.341 15.7211H14.169V18.1991ZM14.169 14.3711H16.113C16.321 14.3711 16.507 14.3311 16.671 14.2511C16.835 14.1711 16.965 14.0531 17.061 13.8971C17.157 13.7411 17.205 13.5491 17.205 13.3211C17.205 13.0211 17.109 12.7711 16.917 12.5711C16.725 12.3711 16.457 12.2711 16.113 12.2711H14.169V14.3711Z" fill="white"/>
<defs>
<filter id="filter0_i_1_639" x="8.77563" y="8.12579" width="14.2305" height="15.678" filterUnits="userSpaceOnUse" color-interpolation-filters="sRGB">
<feFlood flood-opacity="0" result="BackgroundImageFix"/>
<feBlend mode="normal" in="SourceGraphic" in2="BackgroundImageFix" result="shape"/>
<feColorMatrix in="SourceAlpha" type="matrix" values="0 0 0 0 0 0 0 0 0 0 0 0 0 0 0 0 0 0 127 0" result="hardAlpha"/>
<feOffset dy="1.44751"/>
<feGaussianBlur stdDeviation="0.723756"/>
<feComposite in2="hardAlpha" operator="arithmetic" k2="-1" k3="1"/>
<feColorMatrix type="matrix" values="0 0 0 0 0.415686 0 0 0 0 0.27451 0 0 0 0 0.196078 0 0 0 1 0"/>
<feBlend mode="normal" in2="shape" result="effect1_innerShadow_1_639"/>
</filter>
</defs>
</svg>
