<svg width="10" height="10" viewBox="0 0 10 10" fill="none" xmlns="http://www.w3.org/2000/svg">
<path id="Search icon" d="M9.88313 9.29445L7.39809 6.80941C8.07529 5.98117 8.40825 4.92433 8.3281 3.85748C8.24794 2.79064 7.7608 1.79542 6.96744 1.07767C6.17408 0.35992 5.1352 -0.0254371 4.06568 0.00130418C2.99616 0.0280455 1.97784 0.46484 1.22134 1.22134C0.46484 1.97784 0.0280455 2.99616 0.00130418 4.06568C-0.0254371 5.1352 0.35992 6.17408 1.07767 6.96744C1.79542 7.7608 2.79064 8.24794 3.85748 8.3281C4.92433 8.40825 5.98117 8.07529 6.80941 7.39809L9.29445 9.88313C9.37297 9.95897 9.47813 10.0009 9.58729 9.99998C9.69645 9.99904 9.80087 9.95525 9.87806 9.87806C9.95525 9.80087 9.99904 9.69645 9.99998 9.58729C10.0009 9.47813 9.95897 9.37297 9.88313 9.29445ZM4.17657 7.50717C3.51784 7.50717 2.8739 7.31183 2.32619 6.94586C1.77848 6.57989 1.35159 6.05972 1.0995 5.45114C0.847417 4.84255 0.78146 4.17288 0.909971 3.5268C1.03848 2.88073 1.35569 2.28728 1.82148 1.82148C2.28728 1.35569 2.88073 1.03848 3.5268 0.909971C4.17288 0.78146 4.84255 0.847417 5.45114 1.0995C6.05972 1.35159 6.57989 1.77848 6.94586 2.32619C7.31183 2.8739 7.50717 3.51784 7.50717 4.17657C7.50618 5.0596 7.15496 5.90617 6.53056 6.53056C5.90617 7.15496 5.0596 7.50618 4.17657 7.50717Z" fill="black"/>
</svg>
