<svg width="31" height="45" viewBox="0 0 31 45" fill="none" xmlns="http://www.w3.org/2000/svg">
<path d="M15.4584 2C8.14373 2 2.2196 7.92413 2.2196 15.2388C2.2196 20.9037 10.1602 35.0317 13.742 41.1162C14.2849 42.0386 14.5564 42.4997 14.937 42.6677C15.2621 42.8111 15.6547 42.8111 15.9797 42.6677C16.3604 42.4997 16.6319 42.0386 17.1748 41.1162C20.7565 35.0317 28.6971 20.9037 28.6971 15.2388C28.6971 7.92413 22.773 2 15.4584 2ZM15.4584 22.354C11.5282 22.354 8.34312 19.1689 8.34312 15.2388C8.34312 11.3086 11.5282 8.12352 15.4584 8.12352C19.3885 8.12352 22.5736 11.3086 22.5736 15.2388C22.5736 19.1689 19.3885 22.354 15.4584 22.354Z" fill="#FFA200"/>
<path d="M15.4584 22.354C11.5282 22.354 8.34312 19.1689 8.34312 15.2388C8.34312 11.3086 11.5282 8.12352 15.4584 8.12352C19.3885 8.12352 22.5736 11.3086 22.5736 15.2388C22.5736 19.1689 19.3885 22.354 15.4584 22.354Z" fill="#FFA200"/>
<path fill-rule="evenodd" clip-rule="evenodd" d="M0.219604 15.2388C0.219604 6.81956 7.03916 0 15.4584 0C23.8776 0 30.6971 6.81956 30.6971 15.2388C30.6971 17.0224 30.0952 19.2429 29.2815 21.4958C28.4478 23.8044 27.3101 26.3617 26.0776 28.8951C23.6109 33.9653 20.6998 39.0705 18.8983 42.1308L18.8617 42.193C18.6225 42.5996 18.375 43.0202 18.1328 43.3527C17.8712 43.7116 17.4542 44.2031 16.787 44.4975C15.9477 44.8678 14.9691 44.8678 14.1297 44.4975C13.4626 44.2031 13.0455 43.7116 12.7839 43.3527C12.5417 43.0202 12.2942 42.5995 12.055 42.1929L12.0184 42.1308C10.2169 39.0705 7.30584 33.9653 4.83918 28.8951C3.60666 26.3617 2.46898 23.8044 1.63521 21.4958C0.821571 19.2429 0.219604 17.0224 0.219604 15.2388ZM2.2196 15.2388C2.2196 7.92413 8.14373 2 15.4584 2C22.773 2 28.6971 7.92413 28.6971 15.2388C28.6971 20.9037 20.7565 35.0317 17.1748 41.1162C16.6319 42.0386 16.3604 42.4997 15.9797 42.6677C15.6547 42.8111 15.2621 42.8111 14.937 42.6677C14.5563 42.4997 14.2849 42.0386 13.742 41.1162C10.1602 35.0317 2.2196 20.9037 2.2196 15.2388Z" fill="#EC8F00"/>
<g filter="url(#filter0_i_1_624)">
<path d="M15.4583 22.3563C11.5281 22.3563 8.34302 19.1712 8.34302 15.241C8.34302 11.3109 11.5281 8.12579 15.4583 8.12579C19.3884 8.12579 22.5735 11.3109 22.5735 15.241C22.5735 19.1712 19.3884 22.3563 15.4583 22.3563Z" fill="#EC8F00"/>
<path d="M15.4583 22.3563C11.5281 22.3563 8.34302 19.1712 8.34302 15.241C8.34302 11.3109 11.5281 8.12579 15.4583 8.12579C19.3884 8.12579 22.5735 11.3109 22.5735 15.241C22.5735 19.1712 19.3884 22.3563 15.4583 22.3563Z" fill="#EC8F00"/>
</g>
<path d="M12.2723 19.5611V10.9211H15.6983C16.2823 10.9211 16.7603 11.0391 17.1323 11.2751C17.5083 11.5071 17.7863 11.8051 17.9663 12.1691C18.1503 12.5331 18.2423 12.9091 18.2423 13.2971C18.2423 13.7731 18.1283 14.1771 17.9003 14.5091C17.6763 14.8411 17.3703 15.0651 16.9823 15.1811V14.8811C17.5263 15.0051 17.9383 15.2631 18.2183 15.6551C18.5023 16.0471 18.6443 16.4931 18.6443 16.9931C18.6443 17.5051 18.5463 17.9531 18.3503 18.3371C18.1543 18.7211 17.8623 19.0211 17.4743 19.2371C17.0903 19.4531 16.6143 19.5611 16.0463 19.5611H12.2723ZM13.7363 18.1991H15.8663C16.1183 18.1991 16.3443 18.1491 16.5443 18.0491C16.7443 17.9451 16.9003 17.8011 17.0123 17.6171C17.1283 17.4291 17.1863 17.2071 17.1863 16.9511C17.1863 16.7191 17.1363 16.5111 17.0363 16.3271C16.9363 16.1431 16.7903 15.9971 16.5983 15.8891C16.4063 15.7771 16.1763 15.7211 15.9083 15.7211H13.7363V18.1991ZM13.7363 14.3711H15.6803C15.8883 14.3711 16.0743 14.3311 16.2383 14.2511C16.4023 14.1711 16.5323 14.0531 16.6283 13.8971C16.7243 13.7411 16.7723 13.5491 16.7723 13.3211C16.7723 13.0211 16.6763 12.7711 16.4843 12.5711C16.2923 12.3711 16.0243 12.2711 15.6803 12.2711H13.7363V14.3711Z" fill="white"/>
<defs>
<filter id="filter0_i_1_624" x="8.34302" y="8.12579" width="14.2305" height="15.678" filterUnits="userSpaceOnUse" color-interpolation-filters="sRGB">
<feFlood flood-opacity="0" result="BackgroundImageFix"/>
<feBlend mode="normal" in="SourceGraphic" in2="BackgroundImageFix" result="shape"/>
<feColorMatrix in="SourceAlpha" type="matrix" values="0 0 0 0 0 0 0 0 0 0 0 0 0 0 0 0 0 0 127 0" result="hardAlpha"/>
<feOffset dy="1.44751"/>
<feGaussianBlur stdDeviation="0.723756"/>
<feComposite in2="hardAlpha" operator="arithmetic" k2="-1" k3="1"/>
<feColorMatrix type="matrix" values="0 0 0 0 0.720833 0 0 0 0 0.457941 0 0 0 0 0 0 0 0 1 0"/>
<feBlend mode="normal" in2="shape" result="effect1_innerShadow_1_624"/>
</filter>
</defs>
</svg>
