<svg width="11" height="25" viewBox="0 0 11 25" fill="none" xmlns="http://www.w3.org/2000/svg">
<path fill-rule="evenodd" clip-rule="evenodd" d="M10.5351 9.54852C10.7226 9.73606 10.828 9.99041 10.828 10.2556V19.2556C10.8271 20.0069 10.6775 21.0416 10.548 21.7973C10.4407 22.4232 10.0214 22.9465 9.4343 23.1884C8.38181 23.6223 6.69875 24.2546 5.828 24.2556C4.95725 24.2546 3.27419 23.6223 2.22171 23.1884C1.63459 22.9465 1.21528 22.4232 1.10802 21.7973C0.978531 21.0417 0.828903 20.0069 0.828003 19.2556V10.2556C0.828003 9.99041 0.933359 9.73606 1.1209 9.54852C1.30843 9.36098 1.56279 9.25563 1.828 9.25563V4.87563C1.82638 4.24149 2.00214 3.61954 2.33541 3.08004C2.66869 2.54054 3.1462 2.105 3.714 1.82263L6.336 0.512627C6.70376 0.328466 7.1125 0.241405 7.52339 0.259716C7.93427 0.278027 8.33365 0.401103 8.68357 0.617247C9.03349 0.833391 9.32232 1.13542 9.52263 1.49464C9.72293 1.85386 9.82805 2.25834 9.828 2.66963V9.25563C10.0932 9.25563 10.3476 9.36098 10.5351 9.54852ZM3.828 4.87563C3.82727 4.61305 3.90003 4.35551 4.03805 4.13213C4.17607 3.90875 4.37384 3.72845 4.609 3.61163L7.228 2.30163C7.29088 2.26906 7.36111 2.2533 7.43187 2.25586C7.50263 2.25842 7.57154 2.27921 7.6319 2.31623C7.69226 2.35326 7.74203 2.40525 7.77639 2.46716C7.81075 2.52908 7.82853 2.59882 7.828 2.66963V9.25563H3.828V4.87563ZM8.84398 19.8589C8.88468 20.7572 8.36867 21.603 7.51084 21.8724C6.87576 22.0719 6.19188 22.2556 5.828 22.2556C5.46413 22.2556 4.78025 22.0719 4.14516 21.8724C3.28734 21.603 2.77132 20.7572 2.81203 19.8589C2.82173 19.645 2.828 19.4366 2.828 19.2556V16.2556C2.828 15.9904 2.93336 15.7361 3.1209 15.5485C3.30843 15.361 3.56279 15.2556 3.828 15.2556H7.828C8.09322 15.2556 8.34757 15.361 8.53511 15.5485C8.72265 15.7361 8.828 15.9904 8.828 16.2556V19.2556C8.828 19.4366 8.83428 19.645 8.84398 19.8589ZM2.828 13.2556V11.2556H8.828V13.2556H2.828Z" fill="#FF84FF"/>
</svg>
