<svg width="25" height="17" viewBox="0 0 25 17" fill="none" xmlns="http://www.w3.org/2000/svg">
<path d="M23.5 7.49954H1.5C0.947715 7.49954 0.5 7.94726 0.5 8.49955C0.5 9.05184 0.947715 9.49955 1.5 9.49955H23.5C24.0523 9.49955 24.5 9.05184 24.5 8.49955C24.5 7.94726 24.0523 7.49954 23.5 7.49954Z" fill="#555353"/>
<path d="M23.5 0.500153H1.5C0.947715 0.500153 0.5 0.947867 0.5 1.50015C0.5 2.05243 0.947715 2.50015 1.5 2.50015H23.5C24.0523 2.50015 24.5 2.05243 24.5 1.50015C24.5 0.947867 24.0523 0.500153 23.5 0.500153Z" fill="#555353"/>
<path d="M23.5 14.4998H1.5C0.947715 14.4998 0.5 14.9476 0.5 15.4999C0.5 16.0521 0.947715 16.4999 1.5 16.4999H23.5C24.0523 16.4999 24.5 16.0521 24.5 15.4999C24.5 14.9476 24.0523 14.4998 23.5 14.4998Z" fill="#555353"/>
</svg>
