<svg width="26" height="31" viewBox="0 0 26 31" fill="none" xmlns="http://www.w3.org/2000/svg">
<path d="M17.776 0.999998C17.776 1.55228 17.3283 2 16.776 2C16.2237 2 15.776 1.55228 15.776 0.999998C15.776 0.447714 16.2237 0 16.776 0C17.3283 0 17.776 0.447714 17.776 0.999998Z" fill="#639AFE"/>
<path fill-rule="evenodd" clip-rule="evenodd" d="M13.776 3.17273C13.776 2.62044 13.3283 2.17273 12.776 2.17273C12.2237 2.17273 11.776 2.62044 11.776 3.17273V6.97166C9.75522 7.14064 7.80429 7.81965 6.10916 8.9523C4.13577 10.2709 2.5977 12.145 1.68945 14.3377C0.781201 16.5304 0.543561 18.9432 1.00658 21.271C1.46961 23.5988 2.6125 25.737 4.29073 27.4152C5.96896 29.0934 8.10715 30.2363 10.4349 30.6994C12.7627 31.1624 15.1755 30.9247 17.3682 30.0165C19.5609 29.1082 21.4351 27.5702 22.7536 25.5968C24.0722 23.6234 24.776 21.3033 24.776 18.9299C24.7726 15.7484 23.5072 12.6981 21.2575 10.4485C19.2447 8.43568 16.5911 7.2108 13.776 6.97268V3.17273ZM12.7136 9.40852C12.7342 9.40979 12.755 9.41044 12.776 9.41044C12.797 9.41044 12.8178 9.40979 12.8385 9.40852C14.0997 10.7588 15.1635 12.281 15.998 13.9299H9.55401C10.389 12.2814 11.4528 10.7592 12.7136 9.40852ZM15.381 9.28593C16.5316 10.696 17.481 12.2589 18.202 13.9299H21.423C20.0983 11.6474 17.9275 9.97886 15.381 9.28593ZM16.8 21.9299C17.1074 20.9593 17.2678 19.9481 17.276 18.9299C17.2678 17.9118 17.1074 16.9006 16.8 15.9299H8.75201C8.44466 16.9006 8.28422 17.9118 8.27601 18.9299C8.28422 19.9481 8.44466 20.9593 8.75201 21.9299H16.8ZM12.776 28.5179C14.0642 27.1508 15.1492 25.6057 15.998 23.9299H9.55401C10.4022 25.606 11.4874 27.1512 12.776 28.5179ZM7.35001 13.9299C8.07259 12.2586 9.02367 10.6957 10.176 9.28593C7.62766 9.97769 5.45486 11.6464 4.12901 13.9299H7.35001ZM6.27601 18.9299C6.28237 17.9171 6.41676 16.9091 6.67601 15.9299H3.23701C2.62235 17.8827 2.62235 19.9772 3.23701 21.9299H6.67601C6.41676 20.9508 6.28237 19.9428 6.27601 18.9299ZM10.176 28.5739C9.02367 27.1642 8.07259 25.6012 7.35001 23.9299H4.12901C5.45486 26.2135 7.62766 27.8822 10.176 28.5739ZM18.202 23.9299C17.481 25.601 16.5316 27.1639 15.381 28.5739C17.9275 27.881 20.0983 26.2125 21.423 23.9299H18.202ZM19.276 18.9299C19.2696 19.9428 19.1353 20.9508 18.876 21.9299H22.313C22.9277 19.9772 22.9277 17.8827 22.313 15.9299H18.876C19.1353 16.9091 19.2696 17.9171 19.276 18.9299Z" fill="#639AFE"/>
<path d="M25.776 10.9536C25.776 11.5059 25.3283 11.9536 24.776 11.9536C24.2237 11.9536 23.776 11.5059 23.776 10.9536C23.776 10.4013 24.2237 9.95361 24.776 9.95361C25.3283 9.95361 25.776 10.4013 25.776 10.9536Z" fill="#639AFE"/>
<path d="M2.77598 8.41041C2.77598 8.96269 2.32827 9.41041 1.77599 9.41041C1.22371 9.41041 0.776001 8.96269 0.776001 8.41041C0.776001 7.85812 1.22371 7.4104 1.77599 7.4104C2.32827 7.4104 2.77598 7.85812 2.77598 8.41041Z" fill="#639AFE"/>
<path d="M23.3618 3.04604C23.7369 3.42112 24.2456 3.63183 24.776 3.63183C25.0412 3.63183 25.2956 3.73719 25.4831 3.92472C25.6706 4.11226 25.776 4.36661 25.776 4.63183C25.776 4.89704 25.6706 5.1514 25.4831 5.33893C25.2956 5.52647 25.0412 5.63183 24.776 5.63183C24.2456 5.63183 23.7369 5.84254 23.3618 6.21761C22.9867 6.59268 22.776 7.10139 22.776 7.63182C22.776 7.89704 22.6706 8.15139 22.4831 8.33893C22.2956 8.52646 22.0412 8.63182 21.776 8.63182C21.5108 8.63182 21.2564 8.52646 21.0689 8.33893C20.8813 8.15139 20.776 7.89704 20.776 7.63182C20.776 7.10139 20.5653 6.59268 20.1902 6.21761C19.8151 5.84254 19.3064 5.63183 18.776 5.63183C18.5108 5.63183 18.2564 5.52647 18.0689 5.33893C17.8814 5.1514 17.776 4.89704 17.776 4.63183C17.776 4.36661 17.8814 4.11226 18.0689 3.92472C18.2564 3.73719 18.5108 3.63183 18.776 3.63183C19.3064 3.63183 19.8151 3.42112 20.1902 3.04604C20.5653 2.67097 20.776 2.16227 20.776 1.63183C20.776 1.36662 20.8813 1.11226 21.0689 0.924727C21.2564 0.737191 21.5108 0.631836 21.776 0.631836C22.0412 0.631836 22.2956 0.737191 22.4831 0.924727C22.6706 1.11226 22.776 1.36662 22.776 1.63183C22.776 2.16227 22.9867 2.67097 23.3618 3.04604Z" fill="#639AFE"/>
<path d="M15.381 28.5739C16.5316 27.1639 17.481 25.601 18.202 23.9299H21.423C20.0983 26.2125 17.9275 27.881 15.381 28.5739Z" fill="#639AFE"/>
<path d="M12.776 9.41044C12.755 9.41044 12.7342 9.40979 12.7136 9.40852C11.4528 10.7592 10.389 12.2814 9.55401 13.9299H15.998C15.1635 12.281 14.0997 10.7588 12.8385 9.40852C12.8178 9.40979 12.797 9.41044 12.776 9.41044Z" fill="#639AFE"/>
<path d="M6.67601 15.9299C6.41676 16.9091 6.28237 17.9171 6.27601 18.9299C6.28237 19.9428 6.41676 20.9508 6.67601 21.9299H3.23701C2.62235 19.9772 2.62235 17.8827 3.23701 15.9299H6.67601Z" fill="#639AFE"/>
</svg>
