<svg width="23" height="25" viewBox="0 0 23 25" fill="none" xmlns="http://www.w3.org/2000/svg">
<path fill-rule="evenodd" clip-rule="evenodd" d="M22.5421 5.25647C22.5421 4.46082 22.2261 3.69776 21.6634 3.13515C21.1008 2.57254 20.3378 2.25647 19.5421 2.25647H19.3711C19.1635 1.67196 18.7802 1.16598 18.2737 0.807913C17.7673 0.449846 17.1624 0.257226 16.5421 0.25647H6.54212C5.92185 0.257226 5.317 0.449846 4.81051 0.807913C4.30403 1.16598 3.92071 1.67196 3.71313 2.25647H3.54213C2.93599 2.26046 2.34529 2.44797 1.84782 2.7943C1.35036 3.14062 0.969468 3.62952 0.755332 4.19658C0.541195 4.76364 0.503857 5.38227 0.648233 5.97097C0.792609 6.55967 1.11193 7.09082 1.56413 7.49447L2.83502 8.25647L4.11213 19.8765C4.26467 21.0851 4.85262 22.1966 5.76585 23.0029C6.67907 23.8092 7.85491 24.2549 9.07312 24.2565H14.0111C15.2293 24.2547 16.405 23.8089 17.3182 23.0027C18.2314 22.1964 18.8194 21.085 18.9721 19.8765L20.2492 8.25647L21.5201 7.49447C21.5201 7.49447 22.0586 7.13651 22.1637 6.79519C22.1972 6.68632 22.2302 6.57915 22.2728 6.48582C22.449 6.09988 22.5409 5.68075 22.5421 5.25647ZM4.54212 4.25647H3.54213C3.27691 4.25647 3.02255 4.36183 2.83502 4.54936C2.64748 4.7369 2.54213 4.99125 2.54213 5.25647C2.54213 5.52169 2.64748 5.77604 2.83502 5.96358C3.02255 6.15111 3.27691 6.25647 3.54213 6.25647H19.5421C19.8073 6.25647 20.0617 6.15111 20.2492 5.96358C20.4368 5.77604 20.5421 5.52169 20.5421 5.25647C20.5421 4.99125 20.4368 4.7369 20.2492 4.54936C20.0617 4.36183 19.8073 4.25647 19.5421 4.25647H18.5421C18.2769 4.25647 18.0226 4.15111 17.835 3.96358C17.6475 3.77604 17.5421 3.52169 17.5421 3.25647C17.5421 2.99125 17.4368 2.7369 17.2492 2.54936C17.0617 2.36183 16.8073 2.25647 16.5421 2.25647H6.54212C6.27691 2.25647 6.02255 2.36183 5.83502 2.54936C5.64748 2.7369 5.54212 2.99125 5.54212 3.25647C5.54212 3.52169 5.43677 3.77604 5.24923 3.96358C5.06169 4.15111 4.80734 4.25647 4.54212 4.25647ZM15.996 21.5052C16.544 21.0213 16.8965 20.3539 16.9871 19.6285L17.2005 17.2025H5.80945L6.09612 19.6285C6.1868 20.3541 6.53937 21.0216 7.08758 21.5055C7.63579 21.9895 8.34187 22.2565 9.07312 22.2565H14.0111C14.7422 22.2563 15.448 21.9891 15.996 21.5052ZM17.9871 8.25647H5.09612L5.54212 11.7354H17.5421L17.9871 8.25647Z" fill="#86624E"/>
</svg>
