<svg width="32" height="45" viewBox="0 0 32 45" fill="none" xmlns="http://www.w3.org/2000/svg">
<path d="M15.9359 2C8.62127 2 2.69714 7.92413 2.69714 15.2388C2.69714 20.9037 10.6378 35.0317 14.2195 41.1162C14.7624 42.0386 15.0339 42.4997 15.4145 42.6677C15.7396 42.8111 16.1322 42.8111 16.4573 42.6677C16.8379 42.4997 17.1094 42.0386 17.6523 41.1162C21.2341 35.0317 29.1747 20.9037 29.1747 15.2388C29.1747 7.92413 23.2506 2 15.9359 2ZM15.9359 22.354C12.0057 22.354 8.82066 19.1689 8.82066 15.2388C8.82066 11.3086 12.0057 8.12352 15.9359 8.12352C19.8661 8.12352 23.0512 11.3086 23.0512 15.2388C23.0512 19.1689 19.8661 22.354 15.9359 22.354Z" fill="#FE6711"/>
<path d="M15.9359 22.354C12.0057 22.354 8.82066 19.1689 8.82066 15.2388C8.82066 11.3086 12.0057 8.12352 15.9359 8.12352C19.8661 8.12352 23.0512 11.3086 23.0512 15.2388C23.0512 19.1689 19.8661 22.354 15.9359 22.354Z" fill="#FE6711"/>
<path fill-rule="evenodd" clip-rule="evenodd" d="M0.697144 15.2388C0.697144 6.81956 7.5167 0 15.9359 0C24.3551 0 31.1747 6.81956 31.1747 15.2388C31.1747 17.0224 30.5727 19.2429 29.7591 21.4958C28.9253 23.8044 27.7876 26.3617 26.5551 28.8951C24.0884 33.9653 21.1774 39.0705 19.3759 42.1308L19.3393 42.193C19.1001 42.5996 18.8526 43.0202 18.6103 43.3527C18.3488 43.7116 17.9317 44.2031 17.2646 44.4975C16.4252 44.8678 15.4466 44.8678 14.6073 44.4975C13.9401 44.2031 13.523 43.7116 13.2615 43.3527C13.0192 43.0202 12.7717 42.5995 12.5325 42.1929L12.4959 42.1308C10.6945 39.0705 7.78338 33.9653 5.31671 28.8951C4.0842 26.3617 2.94652 23.8044 2.11275 21.4958C1.29911 19.2429 0.697144 17.0224 0.697144 15.2388ZM2.69714 15.2388C2.69714 7.92413 8.62127 2 15.9359 2C23.2506 2 29.1747 7.92413 29.1747 15.2388C29.1747 20.9037 21.2341 35.0317 17.6523 41.1162C17.1094 42.0386 16.8379 42.4997 16.4573 42.6677C16.1322 42.8111 15.7396 42.8111 15.4145 42.6677C15.0339 42.4997 14.7624 42.0386 14.2195 41.1162C10.6378 35.0317 2.69714 20.9037 2.69714 15.2388Z" fill="#E75018"/>
<g filter="url(#filter0_i_1_629)">
<path d="M15.9358 22.3563C12.0056 22.3563 8.82056 19.1712 8.82056 15.241C8.82056 11.3109 12.0056 8.12579 15.9358 8.12579C19.866 8.12579 23.0511 11.3109 23.0511 15.241C23.0511 19.1712 19.866 22.3563 15.9358 22.3563Z" fill="#E75018"/>
<path d="M15.9358 22.3563C12.0056 22.3563 8.82056 19.1712 8.82056 15.241C8.82056 11.3109 12.0056 8.12579 15.9358 8.12579C19.866 8.12579 23.0511 11.3109 23.0511 15.241C23.0511 19.1712 19.866 22.3563 15.9358 22.3563Z" fill="#E75018"/>
</g>
<path d="M12.8258 19.561V10.921H16.2518C16.8358 10.921 17.3138 11.039 17.6858 11.275C18.0618 11.507 18.3398 11.805 18.5198 12.169C18.7038 12.533 18.7958 12.909 18.7958 13.297C18.7958 13.773 18.6818 14.177 18.4538 14.509C18.2298 14.841 17.9238 15.065 17.5358 15.181V14.881C18.0798 15.005 18.4918 15.263 18.7718 15.655C19.0558 16.047 19.1978 16.493 19.1978 16.993C19.1978 17.505 19.0998 17.953 18.9038 18.337C18.7078 18.721 18.4158 19.021 18.0278 19.237C17.6438 19.453 17.1678 19.561 16.5998 19.561H12.8258ZM14.2898 18.199H16.4198C16.6718 18.199 16.8978 18.149 17.0978 18.049C17.2978 17.945 17.4538 17.801 17.5658 17.617C17.6818 17.429 17.7398 17.207 17.7398 16.951C17.7398 16.719 17.6898 16.511 17.5898 16.327C17.4898 16.143 17.3438 15.997 17.1518 15.889C16.9598 15.777 16.7298 15.721 16.4618 15.721H14.2898V18.199ZM14.2898 14.371H16.2338C16.4418 14.371 16.6278 14.331 16.7918 14.251C16.9558 14.171 17.0858 14.053 17.1818 13.897C17.2778 13.741 17.3258 13.549 17.3258 13.321C17.3258 13.021 17.2298 12.771 17.0378 12.571C16.8458 12.371 16.5778 12.271 16.2338 12.271H14.2898V14.371Z" fill="white"/>
<defs>
<filter id="filter0_i_1_629" x="8.82056" y="8.12579" width="14.2305" height="15.678" filterUnits="userSpaceOnUse" color-interpolation-filters="sRGB">
<feFlood flood-opacity="0" result="BackgroundImageFix"/>
<feBlend mode="normal" in="SourceGraphic" in2="BackgroundImageFix" result="shape"/>
<feColorMatrix in="SourceAlpha" type="matrix" values="0 0 0 0 0 0 0 0 0 0 0 0 0 0 0 0 0 0 127 0" result="hardAlpha"/>
<feOffset dy="1.44751"/>
<feGaussianBlur stdDeviation="0.723756"/>
<feComposite in2="hardAlpha" operator="arithmetic" k2="-1" k3="1"/>
<feColorMatrix type="matrix" values="0 0 0 0 0.847059 0 0 0 0 0.254902 0 0 0 0 0.0352941 0 0 0 1 0"/>
<feBlend mode="normal" in2="shape" result="effect1_innerShadow_1_629"/>
</filter>
</defs>
</svg>
