<svg width="16" height="25" viewBox="0 0 16 25" fill="none" xmlns="http://www.w3.org/2000/svg">
<path d="M6.9037 1.91464C7.08973 1.72342 7.34204 1.61599 7.60513 1.61599C7.86822 1.61599 8.12053 1.72342 8.30656 1.91464C8.49259 2.10586 8.59711 2.36521 8.59711 2.63563V5.35467C8.59619 5.84809 8.4805 6.85312 8.36424 7.74002C8.23745 8.70727 7.42748 9.40898 6.48083 9.48475C6.04828 9.51937 5.61312 9.57169 5.29053 9.65076V23.1391C5.29053 23.4096 5.18601 23.6689 4.99998 23.8601C4.81395 24.0514 4.56164 24.1588 4.29855 24.1588C4.03547 24.1588 3.78315 24.0514 3.59712 23.8601C3.41109 23.6689 3.30658 23.4096 3.30658 23.1391V9.65076C2.98065 9.57087 2.53012 9.51829 2.08051 9.48368C1.11425 9.4093 0.294258 8.67885 0.187424 7.68893C0.0930854 6.81481 0.000901099 5.83864 0 5.35467V2.63563C0 2.36521 0.104511 2.10586 0.290543 1.91464C0.476574 1.72342 0.728886 1.61599 0.991974 1.61599C1.25506 1.61599 1.50737 1.72342 1.69341 1.91464C1.87944 2.10586 1.98395 2.36521 1.98395 2.63563V5.35467C1.98484 5.61612 1.98469 6.27276 1.98441 6.77543C1.98421 7.13561 2.25737 7.43318 2.60718 7.4541C2.9867 7.47679 3.30658 7.16656 3.30658 6.7758V1.27611C3.30658 1.00568 3.41109 0.746335 3.59712 0.555116C3.78315 0.363896 4.03547 0.25647 4.29855 0.25647C4.56164 0.25647 4.81395 0.363896 4.99998 0.555116C5.18601 0.746335 5.29053 1.00568 5.29053 1.27611V6.7758C5.29053 7.16656 5.61041 7.47679 5.98992 7.4541C6.33974 7.43318 6.61289 7.13561 6.61269 6.77543C6.61241 6.27275 6.61226 5.61612 6.61316 5.35467V2.63563C6.61316 2.36521 6.71767 2.10586 6.9037 1.91464Z" fill="#FE6711"/>
<path fill-rule="evenodd" clip-rule="evenodd" d="M14.813 0.373468C15.0048 0.333553 15.2038 0.352847 15.385 0.428923C15.5667 0.506611 15.722 0.637738 15.8314 0.805841C15.9408 0.973945 15.9995 1.17153 16 1.37379V23.2368C16 23.5073 15.8955 23.7666 15.7095 23.9578C15.5234 24.149 15.2711 24.2565 15.008 24.2565C14.7449 24.2565 14.4926 24.149 14.3066 23.9578C14.1206 23.7666 14.0161 23.5073 14.0161 23.2368V18.3185C14.0161 18.3185 11.9492 18.4605 11.2319 17.5929C10.7615 17.0401 10.4123 16.3898 10.2081 15.6861C10.0038 14.9823 9.94927 14.2416 10.0482 13.5143L10.8285 7.75674C11.2213 5.06816 12.4401 2.57913 14.307 0.653243C14.4451 0.510726 14.6212 0.413384 14.813 0.373468ZM11.9914 15.2242C12.1055 15.651 12.2992 16.0971 12.6934 16.2741C12.8541 16.3463 14.0161 16.3404 14.0161 16.3404V4.39193C13.4032 5.52623 12.9955 6.76528 12.8125 8.04904L12.0321 13.7998C11.9641 14.2369 11.8774 14.7975 11.9914 15.2242Z" fill="#FE6711"/>
</svg>
