<svg width="19" height="16" viewBox="0 0 19 16" fill="none" xmlns="http://www.w3.org/2000/svg">
<path d="M9.05432 3.08854L9.49179 3.87893L9.92925 3.08854C10.2744 2.46492 10.778 1.94341 11.3892 1.57669C11.9962 1.2125 12.688 1.01377 13.3955 1.0002C14.5344 1.05356 15.6066 1.55348 16.3797 2.39199C17.1562 3.23412 17.5677 4.34931 17.5246 5.49394L17.5242 5.50336V5.51279C17.5242 6.96478 16.7531 8.54704 15.5681 10.1036C14.3921 11.6484 12.8588 13.1026 11.4458 14.2878L11.4454 14.2881C10.8983 14.7479 10.2065 15 9.49179 15C8.77709 15 8.0853 14.7479 7.53815 14.2881L7.53781 14.2878C6.12477 13.1026 4.59147 11.6484 3.41548 10.1036C2.23047 8.54704 1.45937 6.96478 1.45937 5.51279V5.50336L1.45902 5.49394C1.41583 4.34931 1.82741 3.23412 2.60384 2.39199C3.37693 1.55348 4.44917 1.05356 5.58804 1.0002C6.29561 1.01377 6.98736 1.2125 7.59435 1.57669C8.20555 1.94341 8.70916 2.46492 9.05432 3.08854ZM11.1755 13.9655L11.3534 13.8157V13.8125C13.1178 12.3148 14.5256 10.8367 15.505 9.46229C16.5044 8.05967 17.0976 6.70923 17.1021 5.52633C17.154 4.49952 16.7998 3.4933 16.1155 2.72545C15.4283 1.95424 14.464 1.48606 13.433 1.423L13.4025 1.42113L13.372 1.423C12.3409 1.48606 11.3766 1.95424 10.6894 2.72545C10.0062 3.4922 9.65193 4.49663 9.70262 5.52189C9.70035 5.57455 9.67844 5.62459 9.64101 5.66202C9.60143 5.70159 9.54776 5.72383 9.49179 5.72383C9.43582 5.72383 9.38214 5.70159 9.34256 5.66202C9.30514 5.62459 9.28322 5.57455 9.28095 5.52189C9.33165 4.49663 8.97739 3.4922 8.29415 2.72545C7.60694 1.95424 6.64266 1.48606 5.61162 1.423L5.5811 1.42113L5.55058 1.423C4.51954 1.48606 3.55526 1.95424 2.86805 2.72545C2.18382 3.49331 1.82953 4.49953 1.88147 5.52634C1.88597 6.70923 2.47916 8.05967 3.47858 9.46259C4.49068 10.8833 5.96042 12.4152 7.80843 13.9658C8.27965 14.3625 8.87582 14.58 9.49179 14.58C10.1079 14.58 10.7042 14.3623 11.1755 13.9655Z" fill="#555353" stroke="#555353"/>
</svg>
