<svg width="21" height="19" viewBox="0 0 21 19" fill="none" xmlns="http://www.w3.org/2000/svg">
<path id="Vector" fill-rule="evenodd" clip-rule="evenodd" d="M1.48401 5.42589C2.11141 5.23743 13.9177 1.96488 17.4391 1.0032C18.4364 0.73096 19.4031 0.504485 19.5872 0.500108C19.9412 0.491605 20.4404 0.985071 20.4404 1.34335C20.4404 1.50505 12.8845 15.6545 11.7795 17.5621C11.3467 18.3092 11.1234 18.5 10.6817 18.5C10.329 18.5 10.0121 18.2236 9.89307 17.8122C9.85318 17.6746 9.56393 15.8491 9.25004 13.7554C8.93628 11.6619 8.66679 9.93662 8.65115 9.92174C8.63552 9.90673 6.90639 9.26983 4.8086 8.50637C0.4827 6.93205 0.300745 6.81813 0.702421 5.93662C0.807342 5.70652 1.02644 5.5632 1.48401 5.42589ZM6.33426 5.94575C7.24904 5.69201 10.1078 4.90016 12.687 4.1861C15.2663 3.47204 17.4495 2.8834 17.5386 2.87803C17.6332 2.87227 17.399 3.43089 16.9758 4.22049C13.8042 10.1387 11.3626 14.6155 11.3048 14.619C11.2668 14.6214 11.0466 13.353 10.8154 11.8003C10.5098 9.74841 10.3334 8.89904 10.1694 8.69057C10.0111 8.48936 9.18702 8.13245 7.40749 7.49455C6.0125 6.99458 4.8261 6.54526 4.77108 6.49624C4.71606 6.44722 5.41949 6.19948 6.33426 5.94575Z" fill="#555353"/>
</svg>
