<svg width="16" height="16" viewBox="0 0 16 16" fill="none" xmlns="http://www.w3.org/2000/svg">
<path d="M13.0827 9.66655C12.6101 9.66694 12.1448 9.7823 11.7268 10.0027C11.3088 10.223 10.9507 10.5418 10.6834 10.9315L6.6155 9.09471C6.90443 8.39701 6.90556 7.61334 6.61863 6.91482L10.6809 5.06867C11.0771 5.64161 11.6654 6.05359 12.3393 6.22989C13.0132 6.40618 13.728 6.3351 14.3539 6.02955C14.9799 5.72401 15.4756 5.20422 15.7512 4.56448C16.0267 3.92475 16.0639 3.20743 15.8559 2.54266C15.6479 1.87788 15.2085 1.30967 14.6174 0.941104C14.0264 0.572535 13.3228 0.428016 12.6343 0.533763C11.9458 0.63951 11.318 0.988517 10.8648 1.51748C10.4116 2.04644 10.163 2.72032 10.1641 3.41688C10.1667 3.58174 10.1834 3.74608 10.2141 3.9081L5.89554 5.8705C5.48077 5.48191 4.96153 5.22293 4.4016 5.12539C3.84167 5.02785 3.26544 5.09599 2.74371 5.32144C2.22198 5.54689 1.77746 5.91983 1.46477 6.39445C1.15208 6.86907 0.984837 7.42468 0.983589 7.99304C0.98234 8.56141 1.14714 9.11775 1.45774 9.59374C1.76834 10.0697 2.21121 10.4446 2.73195 10.6724C3.25269 10.9001 3.82861 10.9708 4.38897 10.8757C4.94932 10.7806 5.4697 10.5239 5.88617 10.1372L10.2159 12.0921C10.1859 12.2539 10.1694 12.418 10.1666 12.5827C10.1664 13.1596 10.3374 13.7236 10.6579 14.2033C10.9783 14.6831 11.4338 15.057 11.9668 15.2779C12.4998 15.4987 13.0863 15.5565 13.6522 15.444C14.218 15.3315 14.7378 15.0537 15.1457 14.6457C15.5537 14.2378 15.8315 13.718 15.944 13.1521C16.0565 12.5863 15.9987 11.9998 15.7779 11.4668C15.557 10.9338 15.1831 10.4783 14.7033 10.1578C14.2236 9.8374 13.6596 9.66643 13.0827 9.66655ZM13.0827 1.75009C13.4124 1.74997 13.7347 1.84762 14.0089 2.03069C14.283 2.21376 14.4968 2.47404 14.623 2.77859C14.7493 3.08315 14.7824 3.4183 14.7181 3.74167C14.6539 4.06504 14.4952 4.36209 14.2621 4.59525C14.029 4.82842 13.732 4.98723 13.4087 5.05159C13.0854 5.11596 12.7502 5.08299 12.4456 4.95685C12.141 4.83071 11.8806 4.61708 11.6975 4.34296C11.5143 4.06885 11.4165 3.74656 11.4165 3.41688C11.4168 2.97503 11.5925 2.55136 11.9048 2.23887C12.2172 1.92637 12.6408 1.75059 13.0827 1.75009ZM3.91689 9.66655C3.58721 9.66668 3.26489 9.56903 2.99071 9.38595C2.71652 9.20288 2.50279 8.94261 2.37654 8.63805C2.25029 8.3335 2.21719 7.99834 2.28143 7.67497C2.34567 7.35161 2.50437 7.05455 2.73745 6.82139C2.97053 6.58822 3.26752 6.42941 3.59086 6.36505C3.91421 6.30068 4.24937 6.33366 4.55398 6.45979C4.85858 6.58593 5.11893 6.79957 5.30211 7.07368C5.48529 7.3478 5.58306 7.67008 5.58306 7.99976C5.58256 8.44156 5.40688 8.86514 5.09454 9.17759C4.7822 9.49005 4.35869 9.66589 3.91689 9.66655ZM13.0827 14.2494C12.753 14.2494 12.4307 14.1517 12.1566 13.9685C11.8825 13.7854 11.6689 13.5251 11.5428 13.2205C11.4166 12.9159 11.3836 12.5808 11.4479 12.2575C11.5122 11.9342 11.671 11.6372 11.9041 11.4041C12.1372 11.1709 12.4342 11.0122 12.7575 10.9479C13.0808 10.8836 13.416 10.9166 13.7205 11.0427C14.0251 11.1689 14.2854 11.3825 14.4685 11.6566C14.6517 11.9307 14.7495 12.253 14.7495 12.5827C14.7491 13.0246 14.5734 13.4484 14.2609 13.7609C13.9484 14.0734 13.5246 14.2491 13.0827 14.2494Z" fill="#555353"/>
</svg>
