<svg width="14" height="7" viewBox="0 0 14 7" fill="none" xmlns="http://www.w3.org/2000/svg">
<path d="M13.7099 0.288688C13.6169 0.197222 13.5063 0.124624 13.3845 0.0750807C13.2626 0.0255376 13.1319 3.05176e-05 12.9999 3.05176e-05C12.8679 3.05176e-05 12.7372 0.0255376 12.6153 0.0750807C12.4934 0.124624 12.3828 0.197222 12.2899 0.288688L7.70988 4.75813C7.61691 4.84959 7.50631 4.92219 7.38445 4.97174C7.2626 5.02128 7.13189 5.04679 6.99988 5.04679C6.86787 5.04679 6.73716 5.02128 6.6153 4.97174C6.49344 4.92219 6.38284 4.84959 6.28988 4.75813L1.70988 0.288688C1.61691 0.197222 1.50631 0.124624 1.38445 0.0750807C1.26259 0.0255376 1.13189 3.05176e-05 0.999877 3.05176e-05C0.867865 3.05176e-05 0.737159 0.0255376 0.6153 0.0750807C0.493441 0.124624 0.38284 0.197222 0.289877 0.288688C0.103626 0.471528 -0.000915527 0.718861 -0.000915527 0.97667C-0.000915527 1.23448 0.103626 1.48181 0.289877 1.66465L4.87988 6.14385C5.44238 6.69209 6.20487 7.00003 6.99988 7.00003C7.79488 7.00003 8.55738 6.69209 9.11988 6.14385L13.7099 1.66465C13.8961 1.48181 14.0007 1.23448 14.0007 0.97667C14.0007 0.718861 13.8961 0.471528 13.7099 0.288688Z" fill="#555353"/>
</svg>
