<svg width="19" height="19" viewBox="0 0 19 19" fill="none" xmlns="http://www.w3.org/2000/svg">
<g id="Vector">
<path d="M14.3357 11.0283C14.3357 11.2272 14.2565 11.418 14.1156 11.5587C13.9747 11.6993 13.7836 11.7783 13.5843 11.7783H7.57291C7.37362 11.7783 7.18249 11.6993 7.04157 11.5587C6.90065 11.418 6.82149 11.2272 6.82149 11.0283C6.82149 10.8294 6.90065 10.6387 7.04157 10.498C7.18249 10.3574 7.37362 10.2783 7.57291 10.2783H13.5843C13.7836 10.2783 13.9747 10.3574 14.1156 10.498C14.2565 10.6387 14.3357 10.8294 14.3357 11.0283Z" fill="#898A8D"/>
<path d="M11.8614 13.498C11.7204 13.3574 11.5293 13.2783 11.33 13.2783H7.57291C7.37362 13.2783 7.18249 13.3574 7.04157 13.498C6.90065 13.6387 6.82149 13.8294 6.82149 14.0283C6.82149 14.2272 6.90065 14.418 7.04157 14.5587C7.18249 14.6993 7.37362 14.7783 7.57291 14.7783H11.33C11.5293 14.7783 11.7204 14.6993 11.8614 14.5587C12.0023 14.418 12.0814 14.2272 12.0814 14.0283C12.0814 13.8294 12.0023 13.6387 11.8614 13.498Z" fill="#898A8D"/>
<path d="M14.1156 7.44133C14.2565 7.58199 14.3357 7.77275 14.3357 7.97166C14.3357 8.17058 14.2565 8.36134 14.1156 8.50199C13.9747 8.64265 13.7836 8.72166 13.5843 8.72166H7.57291C7.37362 8.72166 7.18249 8.64265 7.04157 8.50199C6.90065 8.36134 6.82149 8.17058 6.82149 7.97166C6.82149 7.77275 6.90065 7.58199 7.04157 7.44133C7.18249 7.30068 7.37362 7.22166 7.57291 7.22166H13.5843C13.7836 7.22166 13.9747 7.30068 14.1156 7.44133Z" fill="#898A8D"/>
<path d="M7.04157 5.502C7.18249 5.64265 7.37362 5.72166 7.57291 5.72166H11.33C11.5293 5.72166 11.7204 5.64265 11.8614 5.502C12.0023 5.36134 12.0814 5.17058 12.0814 4.97166C12.0814 4.77275 12.0023 4.58199 11.8614 4.44133C11.7204 4.30068 11.5293 4.22166 11.33 4.22166H7.57291C7.37362 4.22166 7.18249 4.30068 7.04157 4.44133C6.90065 4.58199 6.82149 4.77275 6.82149 4.97166C6.82149 5.17058 6.90065 5.36134 7.04157 5.502Z" fill="#898A8D"/>
<path fill-rule="evenodd" clip-rule="evenodd" d="M17.4984 17.4003C16.8581 18.1033 15.99 18.4988 15.0844 18.5H6.1357C5.23017 18.4988 4.36204 18.1033 3.72173 17.4003C3.08143 16.6973 2.72123 15.7442 2.72014 14.75V14.7372H1.25142C1.05213 14.7372 0.861005 14.6582 0.720086 14.5175C0.579168 14.3769 0.5 14.1861 0.5 13.9872C0.5 13.7883 0.579168 13.5975 0.720086 13.4569C0.861005 13.3162 1.05213 13.2372 1.25142 13.2372H2.72014V5.73718H1.25142C1.05213 5.73718 0.861005 5.65817 0.720086 5.51751C0.579168 5.37686 0.5 5.18609 0.5 4.98718C0.5 4.78827 0.579168 4.5975 0.720086 4.45685C0.861005 4.3162 1.05213 4.23718 1.25142 4.23718H2.72018C2.72433 3.24762 3.08418 2.29965 3.72173 1.59966C4.36204 0.896661 5.23017 0.501191 6.1357 0.5H15.0844C15.99 0.501191 16.8581 0.896661 17.4984 1.59966C18.1387 2.30267 18.4989 3.2558 18.5 4.25V14.75C18.4989 15.7442 18.1387 16.6973 17.4984 17.4003ZM5.53987 13.4569C5.39895 13.3162 5.20782 13.2372 5.00853 13.2372H4.08636V5.73718H5.00853C5.20782 5.73718 5.39895 5.65817 5.53987 5.51751C5.68079 5.37686 5.75995 5.18609 5.75995 4.98718C5.75995 4.78827 5.68079 4.5975 5.53987 4.45685C5.39895 4.3162 5.20782 4.23718 5.00853 4.23718H4.0864C4.08947 3.64507 4.30503 3.07794 4.6866 2.65901C5.07092 2.23705 5.59218 2 6.1357 2H15.0844C15.628 2 16.1492 2.23705 16.5335 2.65901C16.9179 3.08097 17.1338 3.65326 17.1338 4.25V14.75C17.1338 15.3467 16.9179 15.919 16.5335 16.341C16.1492 16.7629 15.628 17 15.0844 17H6.1357C5.59218 17 5.07092 16.7629 4.6866 16.341C4.30228 15.919 4.08636 15.3467 4.08636 14.75V14.7372H5.00853C5.20782 14.7372 5.39895 14.6582 5.53987 14.5175C5.68079 14.3769 5.75995 14.1861 5.75995 13.9872C5.75995 13.7883 5.68079 13.5975 5.53987 13.4569Z" fill="#898A8D"/>
</g>
</svg>
